<!-- ./ImageMagick/convert.exe -background none "Source.svg" "Target.png" -->
<svg xmlns="http://www.w3.org/2000/svg" width="320" height="320" viewBox="0 0 200 200">
    <defs>
        <linearGradient x1="0.75" y1="0.75" x2="0.25" y2="1" id="circleGrad">
            <stop offset="0" stop-color="#46c8ff"/>
            <stop offset="1" stop-color="#bd34fe"/>
        </linearGradient>
        <linearGradient x1="0" y1="0.5" x2="1" y2="0" id="hashGrad">
        	<stop offset="0" stop-color="#ff8a00"/>
            <stop offset="1" stop-color="#ffe742"/>
        </linearGradient>
    </defs>
    <g fill="url(#circleGrad)" transform="translate(29.5, 9.7) scale(0.27,0.27) skewX(-15)">
        <path d="M332.23 642.57a317 317 0 0 1-224.15-541.16 317 317 0 1 1 448.3 448.31 314.94 314.94 0 0 1-224.15 92.85zm0-630c-172.59 0-313 140.41-313 313s140.41 313 313 313 313-140.41 313-313-140.41-313-313-313z"/>
        <path d="M103 480.19a317 317 0 0 1 543.7-326.1A317 317 0 0 1 103 480.19zm540.27-324C554.48 8.14 361.84-40.06 213.83 48.72S17.64 330.13 106.41 478.13s281.41 196.2 429.41 107.43S732 304.15 643.25 156.14z"/>
        <path d="M159.69 592.27A317 317 0 0 1 42 159.69 317 317 0 0 1 474.59 42a317 317 0 0 1-74.24 581 314.89 314.89 0 0 1-240.66-30.73zM472.6 45.48C322.81-40.25 131.2 11.88 45.48 161.67S11.88 503.08 161.67 588.8s341.41 33.6 427.13-116.2 33.6-341.4-116.2-427.12z"/>
        <path d="M464.47 648.26a317 317 0 0 1-398.3-429.48 317 317 0 0 1 585.32 22 317 317 0 0 1-187 407.44zm-219-590.71C83.63 117.55.79 298 60.79 459.84S301.26 704.5 463.08 644.5 707.74 404 647.74 242.21 407.27-2.45 245.45 57.55z"/>
    </g>
    <g transform="translate(48, 43) scale(0.22, 0.22)" fill="url(#hashGrad)">
        <path d="M308.9 32h64.9l-16 96H432h12.9l-10.7 64H432 347.1L325.8 320H400h12.9l-10.7 64H400 315.1l-16 96H234.2l16-96H155.1l-16 96H74.2l16-96H16 3.1l10.7-64H16h84.9l21.3-128H48 35.1l10.7-64H48h84.9l16-96h64.9l-16 96h95.1l16-96zM165.8 320h95.1l21.3-128H187.1L165.8 320z"/>
    </g>
</svg>
